<?xml version="1.0" standalone="no"?>
<!DOCTYPE svg PUBLIC "-//W3C//DTD SVG 20010904//EN"
 "http://www.w3.org/TR/2001/REC-SVG-20010904/DTD/svg10.dtd">
<svg version="1.0" xmlns="http://www.w3.org/2000/svg"
 width="973.000000pt" height="973.000000pt" viewBox="0 0 973.000000 973.000000"
 preserveAspectRatio="xMidYMid meet">
<metadata>
Created by potrace 1.11, written by Peter Selinger 2001-2013
</metadata>
<g transform="translate(0.000000,973.000000) scale(0.100000,-0.100000)"
fill="#000000" stroke="none">
<path d="M2653 8625 c12 -16 29 -39 39 -50 9 -11 98 -123 198 -250 100 -126
196 -247 213 -269 17 -21 37 -45 43 -54 9 -12 38 -15 170 -15 166 1 1357 9
2714 19 1360 10 1640 11 1640 5 0 -6 -110 -535 -150 -722 -16 -74 -32 -153
-36 -175 -3 -21 -8 -42 -10 -45 -2 -3 -6 -21 -9 -40 -3 -19 -10 -50 -15 -69
-5 -19 -11 -48 -14 -64 -3 -16 -10 -52 -16 -80 -6 -28 -12 -60 -14 -71 -2 -11
-12 -54 -21 -95 -8 -41 -29 -138 -45 -215 -16 -77 -45 -216 -65 -310 -20 -93
-52 -246 -72 -340 -19 -93 -37 -177 -38 -185 -23 -104 -58 -272 -61 -295 -3
-16 -7 -36 -10 -44 -3 -11 -19 -84 -39 -181 -2 -8 -24 -113 -49 -233 -25 -120
-48 -228 -50 -240 -9 -45 -48 -228 -86 -407 -22 -102 -41 -196 -44 -210 -3
-14 -10 -47 -15 -75 -6 -27 -19 -88 -29 -135 l-18 -85 123 -165 c68 -91 186
-249 261 -352 120 -164 157 -208 150 -180 -1 4 4 34 11 67 21 100 111 538 116
565 3 14 28 138 56 275 28 138 53 259 55 270 3 18 16 81 28 140 3 11 11 52 20
90 17 82 24 117 32 165 3 19 12 62 19 95 8 33 16 72 19 88 3 15 7 35 10 45 3
9 7 33 10 52 3 19 26 133 51 252 24 119 47 232 50 250 3 18 10 51 15 73 10 41
75 360 84 405 2 14 18 92 35 175 18 82 34 161 36 175 15 78 17 88 33 160 6 25
13 61 16 80 3 19 19 98 35 175 16 77 46 219 65 315 41 205 126 616 133 645 2
11 6 34 9 50 2 17 11 59 19 95 12 57 23 110 40 200 3 14 7 37 11 52 6 28 -11
50 -442 578 l-103 125 -2564 0 -2565 0 21 -30z"/>
<path d="M2346 8592 c-2 -4 -12 -43 -21 -87 -9 -44 -25 -120 -36 -170 -12 -49
-22 -98 -24 -108 -2 -10 -29 -129 -59 -265 -30 -136 -58 -263 -61 -282 -3 -19
-11 -53 -17 -75 -5 -22 -12 -49 -14 -60 -2 -11 -6 -31 -9 -45 -4 -14 -8 -36
-11 -50 -3 -14 -9 -41 -14 -60 -5 -19 -11 -46 -14 -60 -2 -14 -7 -36 -10 -50
-3 -14 -48 -221 -101 -460 -53 -239 -118 -536 -145 -660 -28 -124 -52 -234
-54 -245 -3 -11 -14 -63 -25 -116 -11 -52 -25 -115 -30 -140 -10 -40 -87 -388
-97 -434 -2 -11 -9 -45 -15 -75 -6 -30 -19 -89 -29 -130 -11 -41 -22 -91 -25
-110 -3 -19 -15 -75 -26 -125 -12 -49 -22 -99 -25 -110 -2 -11 -22 -101 -44
-200 -22 -99 -42 -191 -45 -205 -2 -14 -14 -65 -25 -115 -12 -49 -45 -199 -74
-331 l-52 -241 70 -75 c39 -41 118 -125 176 -188 58 -63 119 -128 135 -146 17
-17 73 -78 125 -135 52 -56 103 -110 113 -118 16 -14 266 -16 2577 -16 1995 0
2559 3 2556 12 -5 11 -121 160 -394 503 l-124 154 -311 3 c-172 1 -841 5
-1487 8 -646 3 -1488 8 -1870 10 -382 3 -728 5 -769 5 l-73 0 6 26 c5 20 39
174 61 279 3 11 7 31 10 45 3 14 7 34 9 45 2 11 28 126 56 255 29 129 54 246
57 260 2 14 8 41 13 60 5 19 19 80 30 135 12 55 23 107 25 115 10 43 24 108
29 130 7 37 46 216 120 556 19 88 37 171 40 185 3 13 41 191 86 394 45 204 90
413 101 465 11 52 22 102 24 110 2 8 40 184 85 390 45 206 84 384 86 395 3 11
9 40 14 65 23 107 49 230 64 293 9 38 16 74 16 81 0 11 -39 64 -152 207 -15
19 -60 77 -101 129 -215 278 -296 379 -301 372z"/>
<path d="M3960 6323 l-125 -66 2 -516 c1 -284 2 -519 2 -523 1 -5 57 -8 125
-8 l124 0 0 590 c0 325 -1 590 -2 590 0 -1 -57 -30 -126 -67z"/>
<path d="M4446 6326 c-65 -35 -121 -68 -125 -74 -4 -7 -7 -991 -2 -1035 1 -4
56 -6 124 -5 l122 3 2 588 c1 323 1 587 0 587 -1 -1 -55 -29 -121 -64z"/>
<path d="M6383 6059 c-50 -9 -89 -28 -126 -63 l-28 -26 -9 26 c-6 14 -10 30
-10 35 0 6 -39 9 -97 7 l-97 -3 0 -572 c-1 -375 2 -573 9 -574 50 -7 235 -2
238 6 2 6 3 85 2 177 l0 166 36 -19 c124 -63 292 -30 407 79 89 84 133 208
126 357 -4 101 -9 127 -39 192 -30 66 -91 132 -154 167 -56 30 -72 35 -146 42
-27 3 -54 6 -60 8 -5 1 -29 -1 -52 -5z m102 -200 c105 -72 121 -315 29 -436
-34 -45 -71 -62 -125 -58 -54 3 -80 18 -105 59 -16 27 -18 53 -18 192 0 149 2
164 23 198 13 20 35 43 49 51 41 22 110 19 147 -6z"/>
<path d="M3190 6046 c-45 -14 -134 -61 -180 -94 -19 -15 -37 -28 -39 -29 -3
-2 10 -32 28 -67 l33 -63 67 33 c100 51 233 55 271 9 18 -22 30 -85 16 -86 -6
-1 -31 -3 -56 -5 -51 -4 -118 -12 -170 -20 -57 -10 -153 -59 -193 -100 -48
-49 -69 -116 -62 -203 12 -152 104 -232 263 -232 91 1 147 19 223 72 24 17 28
17 33 3 3 -9 6 -24 6 -35 0 -18 8 -19 105 -19 l106 0 -1 278 c-1 152 -6 301
-12 331 -19 104 -69 179 -146 217 -29 15 -61 19 -147 20 -60 1 -126 -4 -145
-10z m193 -524 c-1 -71 -17 -103 -66 -132 -43 -27 -111 -26 -137 0 -11 11 -20
23 -21 28 0 4 -2 18 -4 32 -5 43 23 87 68 109 63 29 68 30 117 28 l45 -2 -2
-63z"/>
<path d="M5069 5993 c-5 -508 3 -631 52 -709 37 -60 119 -96 222 -96 107 -1
175 23 232 80 l30 31 10 -42 11 -42 94 0 95 0 0 413 0 412 -125 0 -125 0 0
-290 c0 -160 -3 -300 -7 -311 -16 -43 -137 -58 -186 -22 -49 36 -55 73 -56
360 l-1 263 -122 0 -123 0 -1 -47z"/>
<path d="M6353 2356 c-61 -27 -72 -98 -24 -147 51 -51 129 -32 151 37 14 40 8
63 -23 92 -30 28 -66 34 -104 18z"/>
<path d="M5340 2323 c-36 -20 -66 -37 -68 -38 -2 -2 -4 -836 -2 -1028 l0 -48
77 3 78 3 0 573 c0 378 -3 572 -10 572 -5 0 -39 -17 -75 -37z"/>
<path d="M5795 2234 c-33 -18 -64 -35 -70 -37 -5 -2 -10 -39 -11 -83 -1 -43
-2 -82 -3 -85 0 -3 -27 -5 -58 -5 l-57 1 -1 -62 -2 -62 61 -3 61 -3 1 -280 c1
-296 4 -319 50 -371 68 -76 238 -77 346 -2 l28 19 -27 40 c-29 43 -32 45 -71
26 -15 -8 -47 -15 -72 -16 -38 -2 -50 2 -70 24 l-25 27 -2 268 -1 268 86 0
c48 0 103 0 123 1 l36 1 -3 53 c-1 28 -2 57 -3 62 -1 7 -45 10 -118 10 l-118
0 -2 65 c0 36 -1 91 -2 123 -1 31 -4 57 -8 56 -5 0 -35 -16 -68 -35z"/>
<path d="M1230 2035 c-120 -32 -218 -111 -270 -219 -91 -190 -39 -440 116
-549 154 -108 395 -105 521 6 21 19 21 21 6 51 -28 56 -29 57 -95 23 -48 -25
-74 -32 -129 -34 -123 -3 -213 48 -267 151 -23 45 -26 62 -26 146 0 80 4 103
25 150 51 108 136 164 249 162 65 -1 134 -20 177 -47 22 -14 23 -13 43 26 12
22 19 47 17 54 -6 15 -119 70 -164 80 -58 12 -157 12 -203 0z"/>
<path d="M2035 2035 c-72 -17 -125 -47 -179 -102 -59 -60 -90 -119 -109 -209
-60 -291 120 -539 390 -535 246 4 409 203 389 472 -13 168 -107 308 -242 359
-65 24 -180 31 -249 15z m201 -140 c60 -35 103 -101 119 -181 11 -56 5 -180
-10 -232 -21 -69 -92 -145 -151 -161 -122 -32 -231 31 -275 160 -24 73 -20
214 9 289 53 137 192 193 308 125z"/>
<path d="M3033 2039 c-47 -9 -93 -30 -140 -65 -39 -29 -43 -30 -43 -3 0 44
-15 55 -72 53 -29 -1 -57 -2 -63 -3 -8 -1 -10 -275 -5 -769 l0 -43 78 3 77 3
0 304 0 303 34 29 c66 54 165 73 244 45 47 -17 71 -38 91 -81 24 -49 24 -60
25 -342 l1 -263 79 0 79 0 -3 293 c-1 160 -5 304 -9 319 -25 106 -93 186 -178
209 -51 13 -143 17 -195 8z"/>
<path d="M3781 2034 c-52 -14 -111 -50 -138 -84 -67 -84 -56 -220 23 -290 48
-41 93 -63 210 -99 62 -19 108 -39 122 -54 47 -50 37 -128 -22 -170 -25 -18
-46 -22 -111 -23 -76 -2 -110 6 -215 49 -10 5 -23 -7 -41 -37 l-26 -43 41 -25
c111 -67 245 -86 384 -54 92 21 173 127 171 224 -3 140 -60 199 -254 262 -117
37 -152 60 -163 103 -12 48 -3 75 35 105 31 23 44 26 102 25 41 -1 89 -10 122
-22 30 -12 57 -21 60 -21 3 0 17 18 32 40 l26 40 -30 21 c-76 54 -228 78 -328
53z"/>
<path d="M7008 2034 c-48 -12 -132 -56 -143 -74 -12 -20 -23 -9 -30 28 l-6 38
-65 -1 c-50 0 -64 -3 -65 -15 0 -8 -1 -190 -2 -405 l0 -390 79 -3 79 -3 0 307
0 306 34 29 c67 55 165 73 244 45 47 -17 71 -38 91 -81 24 -49 24 -60 25 -342
l1 -263 80 0 80 0 -3 298 c-3 240 -7 307 -20 347 -29 89 -93 155 -172 176 -58
16 -153 17 -207 3z"/>
<path d="M7860 2033 c-125 -32 -225 -135 -264 -273 -19 -67 -26 -177 -14 -239
5 -25 10 -55 12 -67 15 -79 106 -191 188 -232 115 -56 280 -41 360 33 15 14
29 25 32 25 3 0 3 -25 0 -55 -6 -73 -44 -156 -83 -185 -86 -60 -231 -58 -348
7 l-41 23 -21 -36 c-12 -19 -21 -39 -21 -44 0 -12 77 -64 125 -84 110 -46 254
-50 353 -9 88 36 149 113 178 223 15 56 17 124 18 483 1 279 -2 417 -9 418
-47 6 -108 3 -112 -5 -4 -5 -9 -22 -12 -38 l-6 -30 -25 23 c-70 62 -205 89
-310 62z m212 -129 c18 -9 44 -26 56 -38 46 -41 50 -60 48 -247 l-1 -176 -28
-37 c-81 -105 -220 -125 -313 -44 -138 122 -119 436 34 530 62 38 143 43 204
12z"/>
<path d="M4359 2010 c-4 -71 0 -529 6 -567 28 -188 158 -284 340 -249 51 10
132 50 167 83 15 15 30 24 32 22 3 -3 6 -24 7 -47 l3 -42 61 0 62 0 -1 407 -1
408 -75 0 -75 0 -2 -285 c-1 -157 -2 -294 -2 -306 -1 -31 -32 -61 -86 -85 -94
-42 -172 -33 -224 26 -48 55 -54 95 -56 375 -2 140 -3 260 -4 265 -1 6 -32 11
-76 10 -60 0 -75 -3 -76 -15z"/>
<path d="M6315 2020 c-2 -3 -3 -186 -3 -407 l0 -403 79 0 79 0 0 405 c0 223
-3 406 -7 406 -25 4 -145 4 -148 -1z"/>
</g>
</svg>
